<?xml version="1.0" standalone="no"?><!DOCTYPE svg PUBLIC "-//W3C//DTD SVG 1.1//EN" "http://www.w3.org/Graphics/SVG/1.1/DTD/svg11.dtd"><svg t="1664201939279" class="icon" viewBox="0 0 1024 1024" version="1.1" xmlns="http://www.w3.org/2000/svg" p-id="4435" xmlns:xlink="http://www.w3.org/1999/xlink" width="128" height="128"><path d="M595.2 597.333333c-8.533333-4.266667-17.066667-2.133333-23.466667 4.266667l-32 32c-8.533333 8.533333-8.533333 21.333333 0 29.866667 6.4 6.4 17.066667 8.533333 25.6 4.266666v119.466667c0 12.8 8.533333 21.333333 21.333334 21.333333s21.333333-8.533333 21.333333-21.333333V618.666667c0-10.666667-6.4-19.2-12.8-21.333334zM797.866667 657.066667c0-38.4-29.866667-68.266667-68.266667-68.266667S661.333333 618.666667 661.333333 657.066667c0 12.8 8.533333 21.333333 21.333334 21.333333s21.333333-8.533333 21.333333-21.333333c0-14.933333 10.666667-25.6 25.6-25.6s25.6 10.666667 25.6 25.6c0 6.4-2.133333 12.8-6.4 17.066666L665.6 768c-6.4 6.4-6.4 14.933333-4.266667 23.466667 4.266667 8.533333 10.666667 12.8 19.2 12.8h93.866667c12.8 0 21.333333-8.533333 21.333333-21.333334s-8.533333-21.333333-21.333333-21.333333h-46.933333l51.2-57.6c12.8-14.933333 19.2-32 19.2-46.933333zM960 676.266667c8.533333-10.666667 12.8-23.466667 12.8-38.4 0-34.133333-27.733333-61.866667-61.866667-61.866667s-61.866667 27.733333-61.866666 61.866667c0 12.8 8.533333 21.333333 21.333333 21.333333s21.333333-8.533333 21.333333-21.333333c0-10.666667 8.533333-19.2 19.2-19.2s19.2 8.533333 19.2 19.2-8.533333 19.2-19.2 19.2c-12.8 0-21.333333 8.533333-21.333333 21.333333s8.533333 21.333333 21.333333 21.333333c19.2 0 34.133333 14.933333 34.133334 34.133334 0 19.2-14.933333 34.133333-34.133334 34.133333s-34.133333-14.933333-34.133333-34.133333c0-12.8-8.533333-21.333333-21.333333-21.333334s-21.333333 8.533333-21.333334 21.333334c0 42.666667 34.133333 76.8 76.8 76.8s76.8-34.133333 76.8-76.8c-2.133333-23.466667-12.8-42.666667-27.733333-57.6z" p-id="4436" fill="#13227a"></path><path d="M426.666667 725.333333H128V298.666667h768v149.333333c0 23.466667 19.2 42.666667 42.666667 42.666667s42.666667-19.2 42.666666-42.666667v-192c0-23.466667-19.2-42.666667-42.666666-42.666667H85.333333c-23.466667 0-42.666667 19.2-42.666666 42.666667v512c0 23.466667 19.2 42.666667 42.666666 42.666667h341.333334c23.466667 0 42.666667-19.2 42.666666-42.666667s-19.2-42.666667-42.666666-42.666667z" p-id="4437" fill="#13227a"></path><path d="M320 405.333333c12.8 0 21.333333-8.533333 21.333333-21.333333s-8.533333-21.333333-21.333333-21.333333h-85.333333c-12.8 0-21.333333 8.533333-21.333334 21.333333s8.533333 21.333333 21.333334 21.333333h21.333333v213.333334h-21.333333c-12.8 0-21.333333 8.533333-21.333334 21.333333s8.533333 21.333333 21.333334 21.333333h85.333333c12.8 0 21.333333-8.533333 21.333333-21.333333s-8.533333-21.333333-21.333333-21.333333h-21.333333V405.333333h21.333333z" p-id="4438" fill="#13227a"></path></svg>